<?xml version="1.0" standalone="no"?>
<!DOCTYPE svg PUBLIC "-//W3C//DTD SVG 20010904//EN"
 "http://www.w3.org/TR/2001/REC-SVG-20010904/DTD/svg10.dtd">
<svg version="1.0" xmlns="http://www.w3.org/2000/svg"
 width="500.000000pt" height="500.000000pt" viewBox="0 0 500.000000 500.000000"
 preserveAspectRatio="xMidYMid meet">
<metadata>
Created by potrace 1.11, written by Peter Selinger 2001-2013
</metadata>
<g transform="translate(0.000000,500.000000) scale(0.100000,-0.100000)"
fill="#000000" stroke="none">
<path d="M1015 4112 c-59 -22 -89 -60 -105 -135 -7 -36 -9 -505 -8 -1522 3
-1636 -3 -1512 73 -1550 38 -19 56 -20 405 -16 236 2 377 7 399 15 60 20 71
56 71 235 0 153 13 274 32 299 13 16 43 15 56 -1 6 -7 38 -115 71 -239 32
-124 66 -239 75 -256 9 -17 29 -34 47 -41 21 -7 150 -11 378 -11 443 0 411
-15 471 225 42 169 65 230 97 255 14 11 29 20 33 20 17 0 23 -42 35 -226 10
-169 15 -195 34 -222 38 -54 61 -57 451 -57 387 0 391 1 434 58 21 28 21 38
29 885 4 471 6 1152 5 1512 -3 653 -3 655 -25 696 -37 69 -55 73 -355 84 -412
15 -690 13 -753 -6 -63 -18 -99 -44 -122 -87 -20 -39 -109 -376 -219 -827 -29
-119 -84 -244 -116 -261 -17 -9 -24 -7 -44 13 -25 24 -26 30 -149 573 -75 333
-102 441 -120 474 -23 45 -66 92 -94 103 -16 7 -162 12 -386 13 -198 1 -425 5
-505 9 -126 5 -152 3 -195 -12z"/>
</g>
</svg>
