<svg viewBox="0 0 551.25 222.93" xmlns="http://www.w3.org/2000/svg"><g fill="#efefef"><path d="m439.59 49.42 5.69-13.94 106 9.26-.08 1-15.65 13.56c-65.18 56.53-84 86.5-86.17 111.69-2 23.22 10.07 41.45 33.53 43.51 17.79 1.55 37.25-4.72 53.17-30.21l3.08 1.77c-7.36 13-23.39 39.77-59.45 36.62-28.66-2.51-47.31-22.55-44.79-51.45 2.31-26.44 24.94-57.56 97.9-114.91l4.28-3.32-19.52-1.7c-32.11-2.85-52.99-3.18-77.99-1.88z"/><path d="m414.05 122.36c-4.87 55.83-34.62 91.56-75.38 88-39.28-3.43-63.63-40.9-58.67-97.72 4.88-55.82 34.63-91.55 75.39-88 39.27 3.44 63.61 40.91 58.66 97.72zm-120.54-10.53c-4.66 53.36 11.62 92.11 46.49 95.17 34.58 3 56.05-32 60.56-83.57 4.64-53.61-11.88-92.43-46.46-95.43s-56.1 32-60.59 83.83z"/><path d="m160.22 25 5.7-13.94 106 9.26-.08 1-15.66 13.58c-65.18 56.53-83.96 86.5-86.18 111.69-2 23.22 10.06 41.45 33.53 43.5 17.79 1.56 37.25-4.71 53.17-30.2l3.08 1.76c-7.36 13-23.39 39.78-59.45 36.62-28.66-2.5-47.32-22.55-44.79-51.45 2.31-26.43 24.94-57.55 97.9-114.9l4.27-3.36-19.51-1.7c-32.09-2.81-52.97-3.14-77.98-1.86z"/><path d="m134.69 98c-4.87 55.82-34.63 91.56-75.38 88-39.31-3.48-63.63-40.95-58.67-97.76 4.88-55.83 34.63-91.56 75.36-88 39.3 3.43 63.66 40.91 58.69 97.76zm-120.54-10.57c-4.66 53.35 11.62 92.11 46.45 95.15 34.58 3 56.05-31.94 60.56-83.56 4.68-53.6-11.84-92.38-46.42-95.4s-56.06 31.94-60.59 83.81z"/></g></svg>