<svg height="434.588" viewBox="0 0 790.928 434.588" width="790.928" xmlns="http://www.w3.org/2000/svg"><path d="m22241.264 5980.219c-4.367-77.047-13.1-127.918-13.1-127.918l44.309 43.223 29.711 187.961 99.471 20.43s-131.014 79.506-149.354 4.926-11.037-128.622-11.037-128.622z" transform="matrix(-.391 -.921 .921 -.391 3424.362 23186.114)"/><path d="m22110.492 5869.109c72.664-64.99 99.07 45.748 99.07 45.748s-54.969 27.1 20.781 94.434 167.047 104.676 135 252.3-39.5 54.27-39.5 54.27-163.93-118.318-187.891-176.887 28.7-109.617 0-168.486-27.46-101.379-27.46-101.379z" fill="#b4a49c" transform="matrix(-.391 -.921 .921 -.391 3360.725 23084.865)"/><path d="m22231.66 5886.426a335.161 335.161 0 0 0 -3.492-34.125l11.82 11.531 7.926 50.143 26.535 5.45s-34.949 21.21-39.844 1.314-2.945-34.313-2.945-34.313z" fill="#1d1d28" transform="matrix(-.978733 -.208425 .208425 -.978733 21300.317235 10617.096783)"/><path d="m22110.486 5854.394c19.385-18.208 26.43 12.816 26.43 12.816s-14.664 7.594 5.545 26.457 44.563 29.326 36.014 70.685-10.537 15.2-10.537 15.2-43.732-33.148-50.125-49.558 7.656-30.711 0-47.2-7.327-28.4-7.327-28.4z" fill="#c46911" transform="matrix(-.978733 -.208425 .208425 -.978733 21185.687259 10597.130963)"/></svg>