<svg height="502.548" viewBox="0 0 423.726 502.548" width="423.726" xmlns="http://www.w3.org/2000/svg"><path d="m22215.5 5731.738s-161.535 9.317-174.9 36.276-10.422-4.389-54.937 48.045-63.992 77.813-66.5 121.335 41.559 24.346 41.559 24.346l-44.656 27.026a15.61 15.61 0 0 1 -3.453-12.812c-11.605-23.205-6.047-50.423-6.047-50.423l19.953-84.009 34.2-50.793 41.211-42.7 47.566-9.061s116.445-16.114 123.527-19.34 42.477 12.11 42.477 12.11z" transform="matrix(.105 -.995 .995 .105 -7876.37123 21630.18181)"/><path d="m23209.871 5698.563-66.062-37.244s26.41 39.551-48.316 37.244-89.41-29.485-119.068 16.676-56.736 62.122-79.637 77.08-22.354 60.848-61.705 78.493-50.891 49.121 0 152.541c6.766-94.68 43.7-235.246 91.078-231.034s39.742 55.315 133.785 17.4 149.925-111.156 149.925-111.156z" fill="#b4a49c" transform="matrix(.105 -.995 .995 .105 -8006.079 22541.422)"/><path d="m2.448 23.912a234.818 234.818 0 0 0 -2.448-23.912l8.283 8.08 5.554 35.136 18.594 3.819s-24.491 14.865-27.919.92-2.064-24.043-2.064-24.043z" fill="#1d1d28" transform="matrix(.76604443855 .64278760711 -.64278760711 .76604443855 142.62168435004 15.20298407812)"/><path d="m0 3.822c13.583-12.149 18.519 8.552 18.519 8.552s-10.274 5.066 3.886 17.652 31.227 19.567 25.236 47.162-7.384 10.145-7.384 10.145-30.643-22.117-35.122-33.066 5.366-20.491 0-31.5-5.135-18.945-5.135-18.945z" fill="#504a30" transform="matrix(.76604443855 .64278760711 -.64278760711 .76604443855 138.38642244354 -.00034386838)"/><path d="m2.448 23.912a234.818 234.818 0 0 0 -2.448-23.912l8.283 8.08 5.554 35.136 18.594 3.819s-24.491 14.865-27.919.92-2.064-24.043-2.064-24.043z" fill="#1d1d28" transform="matrix(.52991926067 -.84804809621 .84804809621 .52991926067 14.46584457302 447.07492631406)"/><path d="m0 3.822c13.583-12.149 18.519 8.552 18.519 8.552s-10.274 5.066 3.886 17.652 31.227 19.567 25.236 47.162-7.384 10.145-7.384 10.145-30.643-22.117-35.122-33.066 5.366-20.491 0-31.5-5.135-18.945-5.135-18.945z" fill="#1e2a4b" transform="matrix(.52991926067 -.84804809621 .84804809621 .52991926067 .00026787274 453.38392399942)"/></svg>