<svg xmlns="http://www.w3.org/2000/svg" viewBox="0 0 779.92 354.73"><defs><style>.cls-1{isolation:isolate;}.cls-2{fill:#fff;}</style></defs><title>アセット 1</title><g id="レイヤー_2" data-name="レイヤー 2"><g id="レイヤー_1-2" data-name="レイヤー 1"><g id="グループ_113" data-name="グループ 113"><g id="TO-_" data-name="TO- " class="cls-1"><g class="cls-1"><path class="cls-2" d="M576,88.1c-6.94,1.74-16.05,1.74-26.47.44-29.08-3.48-65.53-10-94.18-15.63C408,115,355.05,172.3,316,213.53c-80.72,85.5-167.52,144.52-254.76,141C28.67,352.85-4.31,337.66.46,287.75c2.17-20.4,11.72-43,27.35-64.67-4.35-3-18.23-16.49-17.37-44.27,0-62.93,65.54-149.73,255.2-143.22,60.76,2.17,130.64,13.89,187.92,26,8.25-6.51,25.61-17.36,41.24-21.7,3.9-1.3,10.85-3,10,0-.87,2.17-6.08,3.47-7.38,3.9-10.85,3.48-26,13.46-33,20,25.17,6.51,59.45,14.32,86.8,18.66,10.85,1.74,17.79,2.6,23.87,1.74,4.34-.44,6.94-1.74,7.37-.87C583.33,85.5,579.43,87.67,576,88.1ZM267.38,50.78C86.4,44.27,16.09,117.18,17,178.38c0,20,6.5,34.28,13.45,41.23a276.08,276.08,0,0,1,57.72-53.82c37.76-26,96.79-48.61,145.39-45.57,26.91,2.17,46,14.76,44.27,41.23,0,4.34-2.17,6.51-3.47,6.51-2.17-.43-2.17-3-1.74-8.68.87-19.53-15.62-32.55-39.92-33.42C191,124.56,134.14,154.94,99,180.11,52.11,213.53,10.44,256.5,7,293.82c-3.47,42.53,27.34,52.95,56,53.82,70.31,1.73,158.41-69,232.19-141.49C352.88,152.77,398.88,105,442.71,70.74,395.84,62.5,322.93,53,267.38,50.78Z"/></g><g class="cls-1"><path class="cls-2" d="M327.69,165.79C327.69,65.54,401,0,490.88,0c87.24,0,158,62.06,158,160.58,0,100.26-73.35,165.79-163.19,165.79C398.44,326.37,327.69,264.31,327.69,165.79Zm296-.87c0-94.61-60.76-158-136.28-158S352.87,68.57,352.87,161.45c0,94.61,60.76,158,137.14,158C564.66,319.43,623.69,258.23,623.69,164.92Z"/><path class="cls-2" d="M686.61,194.87h93.31v13H686.61Z"/></g></g><g id="PORTFOLIO" class="cls-1"><g class="cls-1"><path class="cls-2" d="M395.91,158.42h12.81c3.23,0,5.72,1.07,7.31,3a8.85,8.85,0,0,1,2.06,5.84c0,5.64-3.22,9-9.93,9h-8.38v12.9h-3.87Zm3.87,14.7h8.08c4.34,0,6.41-2.19,6.41-5.71,0-3.7-2.28-5.64-6.19-5.64h-8.3Z"/><path class="cls-2" d="M421.1,173.77c0-9.2,5.77-16,15-16s15.05,6.84,15.05,16-5.76,16-15.05,16S421.1,183,421.1,173.77Zm26.15,0c0-7.22-3.87-12.68-11.1-12.68s-11.09,5.46-11.09,12.68,3.87,12.64,11.09,12.64S447.25,181,447.25,173.77Z"/><path class="cls-2" d="M455.81,158.42h14.36c5.41,0,9.07,3.4,9.07,8.43,0,3.74-1.63,6.4-5.33,7.61v.13c3.14,1.12,4.13,3.27,4.43,7.82.34,5,.86,6.2,1.42,6.58v.17h-4.18c-.64-.55-.77-1.72-1.11-6.88-.3-4.51-2.11-6.1-6.24-6.1h-8.55v13h-3.87ZM459.68,173h9.11c4.3,0,6.45-2.15,6.45-5.63,0-3.74-1.72-5.64-6.23-5.64h-9.33Z"/><path class="cls-2" d="M481.35,158.42h24.33v3.4H495.45v27.34h-3.87V161.82H481.35Z"/><path class="cls-2" d="M509.51,158.42h20.86v3.4h-17v9.59h14.15v3.26H513.38v14.49h-3.87Z"/><path class="cls-2" d="M532.34,173.77c0-9.2,5.77-16,15-16s15.05,6.84,15.05,16-5.76,16-15.05,16S532.34,183,532.34,173.77Zm26.15,0c0-7.22-3.87-12.68-11.1-12.68s-11.09,5.46-11.09,12.68,3.87,12.64,11.09,12.64S558.49,181,558.49,173.77Z"/><path class="cls-2" d="M567.05,158.42h3.87v27.17H587v3.57h-20Z"/><path class="cls-2" d="M591,158.42h3.87v30.74H591Z"/><path class="cls-2" d="M599.51,173.77c0-9.2,5.76-16,15-16s15.05,6.84,15.05,16-5.76,16-15.05,16S599.51,183,599.51,173.77Zm26.14,0c0-7.22-3.87-12.68-11.09-12.68s-11.09,5.46-11.09,12.68,3.87,12.64,11.09,12.64S625.65,181,625.65,173.77Z"/></g></g></g></g></g></svg>