<svg xmlns="http://www.w3.org/2000/svg" viewBox="0 0 481.22 347.21"><defs><style>.cls-1{isolation:isolate;}.cls-2{fill:#fff;}</style></defs><title>アセット 1</title><g id="レイヤー_2" data-name="レイヤー 2"><g id="レイヤー_1-2" data-name="レイヤー 1"><g id="グループ_114" data-name="グループ 114"><g id="と-" class="cls-1"><g class="cls-1"><path class="cls-2" d="M90.71,0c1.73,29.08,17.79,100.26,32.55,143.66,25.6-10.42,37.76-15.19,105-38.63,15.19-5.64,19.09-6.94,27.77-11.28l13,33c-30.38,6.51-92.44,26.47-130.63,42.1C64.23,198.34,32.12,227,32.12,263c0,39.49,33.42,54.68,118.48,54.68,49.91,0,98.52-5.64,124.13-14.75l3.47,36c-8.25,0-8.25,0-32.12,2.6-44.7,4.34-65.53,5.65-95.91,5.65-43,0-75.52-3.91-96.35-11.72C18.23,322.47,0,298.6,0,264.31c0-27.78,13-52.95,38.63-73.78,16.49-13.45,29.94-21.7,56.85-35.15-12.15-35.59-20.4-66-31.68-121.53C59.89,15.62,59,13.46,56.42,6.51Z"/></g><g class="cls-1"><path class="cls-2" d="M477.4,210.52v30.73H380.56V210.52Z"/></g></g><g id="作品集" class="cls-1"><g class="cls-1"><path class="cls-2" d="M369.55,150.16a23.12,23.12,0,0,0-1,2.41,61.61,61.61,0,0,1-3.1,7.05v23.61a37.69,37.69,0,0,0,.3,5.2h-3.87a38.65,38.65,0,0,0,.3-5.29V169.42c0-1.59.05-2.45.18-5.33a34,34,0,0,1-5,6.28,10,10,0,0,0-1.93-3.1,35.34,35.34,0,0,0,8.82-12.59A24.56,24.56,0,0,0,366,149Zm6.62,8.64a45.58,45.58,0,0,1-6.92,10.45,9.19,9.19,0,0,0-2.37-2.62,35.94,35.94,0,0,0,7.49-11.52,26.56,26.56,0,0,0,1.84-6.11l3.53,1.12c-.34.81-.47,1.16-.86,2.19a37.94,37.94,0,0,1-1.38,3.57h13.12a27.25,27.25,0,0,0,4.13-.26V159a33.87,33.87,0,0,0-4.13-.22h-9.5v6.5h8.17a21.74,21.74,0,0,0,3.91-.26v3.48a28.3,28.3,0,0,0-3.91-.26h-8.17v6.54h8.3a25.33,25.33,0,0,0,3.91-.26v3.53a27.06,27.06,0,0,0-3.91-.26h-8.3v6.11a24.52,24.52,0,0,0,.3,4.68H377.5a28,28,0,0,0,.26-4.68V158.8Z"/><path class="cls-2" d="M400.51,173.42a39.59,39.59,0,0,0-.17-4.13,36.87,36.87,0,0,0,4,.18h8.47c1.33,0,2.32-.05,3.4-.13a27.39,27.39,0,0,0-.13,3.95v10.37a32.45,32.45,0,0,0,.17,4.13H413V186h-9.24v2.58h-3.45a28.51,28.51,0,0,0,.22-4.52Zm3.18,9.68H413V172.35h-9.29Zm2.88-28.81a30.61,30.61,0,0,0-.17-3.66,34.8,34.8,0,0,0,4.86.22h14.66a31.8,31.8,0,0,0,4.86-.22,28.77,28.77,0,0,0-.17,3.66v7.44a30.74,30.74,0,0,0,.17,3.82,43.2,43.2,0,0,0-4.51-.17H410.92a43.93,43.93,0,0,0-4.52.17,32.11,32.11,0,0,0,.17-3.78Zm3.27,8.17H427.3v-8.64H409.84ZM420.12,173a25.21,25.21,0,0,0-.13-3.61c1,.08,2,.13,3.4.13h9.71a27.67,27.67,0,0,0,3.74-.18,40.65,40.65,0,0,0-.17,4.18V184a28,28,0,0,0,.22,4.52h-3.44V186H423.26v2.58H420a35,35,0,0,0,.17-4.09Zm3.14,10.15h10.23V172.35H423.26Z"/><path class="cls-2" d="M463.76,169.73h11a25.07,25.07,0,0,0,4-.22v2.92a25.2,25.2,0,0,0-4-.21H463v2.92h12.82a26.16,26.16,0,0,0,4.86-.26v3.27a39.62,39.62,0,0,0-4.86-.25H465.61a35.87,35.87,0,0,0,15.61,6.88,12.58,12.58,0,0,0-1.89,3.13,44.24,44.24,0,0,1-9.12-3.57A28,28,0,0,1,462.9,179c.09,1.64.13,2.32.13,3.19v3.09a11,11,0,0,0,.26,3.18h-3.66a14.65,14.65,0,0,0,.26-3.14V182.2c0-.74.05-2.5.13-3.14a26.6,26.6,0,0,1-8.25,5.84,43.11,43.11,0,0,1-8,2.84,10,10,0,0,0-1.94-3.09,33.64,33.64,0,0,0,10.11-3.23,24.44,24.44,0,0,0,5.29-3.52h-10a37.27,37.27,0,0,0-4.73.25v-3.27a24.51,24.51,0,0,0,4.73.26h12.64v-2.92h-9.2a28.4,28.4,0,0,0-3.14.09,29.13,29.13,0,0,0,.13-3.06v-6.66a40.14,40.14,0,0,1,.17-4.09,28.46,28.46,0,0,1-4.51,4.26,10,10,0,0,0-1.89-2.71,29.16,29.16,0,0,0,8.21-8.47,13.55,13.55,0,0,0,1.46-3l3.57.73c-1.38,2.07-2.28,3.4-2.75,4h8.86a14.33,14.33,0,0,0,2.45-4.64l3.44.64a38.06,38.06,0,0,1-2.54,4H474.6a25.66,25.66,0,0,0,4-.21v3a27.61,27.61,0,0,0-3.66-.17H463.76v2.83h9a26,26,0,0,0,4-.21v2.88a23.61,23.61,0,0,0-4-.22h-9v2.84h9a26.12,26.12,0,0,0,4-.21v2.88a22.66,22.66,0,0,0-4-.22h-9Zm-3-13.76h-9.93v2.83h9.93Zm0,5.28h-9.93v2.84h9.93Zm-9.93,5.29v3.19h9.93v-3.19Z"/></g></g></g></g></g></svg>