<svg xmlns="http://www.w3.org/2000/svg" width="45.086" height="55.637" viewBox="0 0 45.086 55.637">
  <g id="_152084" data-name="152084" transform="translate(-590 55.637)">
    <path id="パス_30" data-name="パス 30" d="M793.013-889.832l.019,1.174,2.454.019,2.448.012V-891H793Z" transform="translate(-190.324 835.363)"/>
    <path id="パス_31" data-name="パス 31" d="M715.591-850.8c-.019.044-.037,5.164-.05,11.383l-.013,11.3-1.268.019-1.261.013.012,1.236.019,1.23,1.261.019,1.268.013.012,1.205.019,1.2h2.31v-27.662l-1.143-.019C715.885-850.878,715.61-850.865,715.591-850.8Z" transform="translate(-115.319 797.739)"/>
    <path id="パス_32" data-name="パス 32" d="M874-839.667v11.333h2.5v-4.983c0-3.79.019-5,.075-5.058a14.315,14.315,0,0,1,2.529-.075h2.454v-2.435H879.1a14.315,14.315,0,0,1-2.529-.075c-.056-.056-.075-1.268-.075-5.058V-851H874Z" transform="translate(-266.266 797.861)"/>
    <path id="パス_37" data-name="パス 37" d="M997-643v5h2.31v-3.765a31.291,31.291,0,0,1,.075-3.84,15.358,15.358,0,0,1,2.629-.075h2.554l-.031-.144c-.044-.169-.169-1.4-.187-1.823l-.013-.312-3.665-.019L997-648Z" transform="translate(-381.586 607.537)"/>
    <path id="パス_39" data-name="パス 39" d="M1119.012-603.93l.019,5.077,1.1.019c.868.013,1.118,0,1.174-.069a36.487,36.487,0,0,0,.081-3.828l.019-3.74,1.268-.019,1.261-.012-.012-1.143-.019-1.136-2.123-.106c-1.168-.056-2.273-.106-2.454-.106L1119-609Z" transform="translate(-495.967 570.972)"/>
    <path id="パス_41" data-name="パス 41" d="M1200-565.845v1.155h2.31V-567H1200Z" transform="translate(-571.91 531.595)"/>
    <path id="パス_43" data-name="パス 43" d="M1240.63-525.744a4.85,4.85,0,0,0-1.224.119c-.037.062-.131,17.422-.1,17.465.006.012.581-.031,1.274-.087l1.261-.106v-8.73c0-4.8-.006-8.723-.012-8.717S1241.279-525.769,1240.63-525.744Z" transform="translate(-608.755 492.967)"/>
    <path id="パス_44" data-name="パス 44" d="M590.012-521.335l.019,3.672h2.435l.031-2.5.031-2.5,2.516-.019,2.51-.012V-525H590Z" transform="translate(0 492.217)"/>
    <path id="パス_48" data-name="パス 48" d="M632.112-405.842c-.1.025-.112.137-.112,1.243v1.211h2.31V-404.6c0-1.049-.012-1.218-.1-1.249A16.829,16.829,0,0,0,632.112-405.842Z" transform="translate(-39.377 380.533)"/>
    <path id="パス_50" data-name="パス 50" d="M671-361.533v2.467h2.5l-.012-2.454-.019-2.448-1.23-.019L671-364Z" transform="translate(-75.942 341.271)"/>
    <path id="パス_52" data-name="パス 52" d="M713-280.533v2.466h1.149a6.619,6.619,0,0,1,1.186.056,29.664,29.664,0,0,1,.219,3.409l.037,1.561h2.31v-4.871l-1.149-.019a5.8,5.8,0,0,1-1.236-.081,11.839,11.839,0,0,1-.081-2.529V-283H713Z" transform="translate(-115.319 265.329)"/>
    <path id="パス_56" data-name="パス 56" d="M1200.176-242.07c-.012.031-.019,1.7-.012,3.715l.019,3.653h2.248l.019-3.672.012-3.665-.231-.006c-.131-.006-.643-.025-1.136-.05A2.883,2.883,0,0,0,1200.176-242.07Z" transform="translate(-572.06 226.99)"/>
    <path id="パス_59" data-name="パス 59" d="M793.075-121.793a30.265,30.265,0,0,0-.075,3.809v3.734h25.29l-.013-3.8-.019-3.79-1.093-.019c-.6-.006-1.155,0-1.23.019l-.144.031v5l-10.128-.012-10.135-.019-.031-2.5-.031-2.5-1.155-.019A3.663,3.663,0,0,0,793.075-121.793Z" transform="translate(-190.324 114.25)"/>
    <path id="パス_60" data-name="パス 60" d="M793.013-889.832l.019,1.174,2.454.019,2.448.012V-891H793Z" transform="translate(-188.324 835.363)"/>
    <path id="パス_61" data-name="パス 61" d="M715.591-850.8c-.019.044-.037,5.164-.05,11.383l-.013,11.3-1.268.019-1.261.013.012,1.236.019,1.23,1.261.019,1.268.013.012,1.205.019,1.2h2.31v-27.662l-1.143-.019C715.885-850.878,715.61-850.865,715.591-850.8Z" transform="translate(-113.319 797.738)"/>
    <path id="パス_62" data-name="パス 62" d="M874-839.667v11.333h2.5v-4.983c0-3.79.019-5,.075-5.058a14.315,14.315,0,0,1,2.529-.075h2.454v-2.435H879.1a14.315,14.315,0,0,1-2.529-.075c-.056-.056-.075-1.268-.075-5.058V-851H874Z" transform="translate(-264.266 797.86)"/>
    <path id="パス_63" data-name="パス 63" d="M997-643v5h2.31v-3.765a31.291,31.291,0,0,1,.075-3.84,15.358,15.358,0,0,1,2.629-.075h2.554l-.031-.144c-.044-.169-.169-1.4-.187-1.823l-.013-.312-3.665-.019L997-648Z" transform="translate(-379.585 607.537)"/>
    <path id="パス_64" data-name="パス 64" d="M1119.012-603.93l.019,5.077,1.1.019c.868.013,1.118,0,1.174-.069a36.487,36.487,0,0,0,.081-3.828l.019-3.74,1.268-.019,1.261-.012-.012-1.143-.019-1.136-2.123-.106c-1.168-.056-2.273-.106-2.454-.106L1119-609Z" transform="translate(-493.967 570.972)"/>
    <path id="パス_65" data-name="パス 65" d="M1200-565.845v1.155h2.31V-567H1200Z" transform="translate(-569.91 531.595)"/>
    <path id="パス_66" data-name="パス 66" d="M1240.63-525.744a4.85,4.85,0,0,0-1.224.119c-.037.062-.131,17.422-.1,17.465.006.012.581-.031,1.274-.087l1.261-.106v-8.73c0-4.8-.006-8.723-.012-8.717S1241.279-525.769,1240.63-525.744Z" transform="translate(-606.755 492.968)"/>
    <path id="パス_67" data-name="パス 67" d="M590.012-521.335l.019,3.672h2.435l.031-2.5.031-2.5,2.516-.019,2.51-.012V-525H590Z" transform="translate(2 492.217)"/>
    <path id="パス_68" data-name="パス 68" d="M632.112-405.842c-.1.025-.112.137-.112,1.243v1.211h2.31V-404.6c0-1.049-.012-1.218-.1-1.249A16.829,16.829,0,0,0,632.112-405.842Z" transform="translate(-37.377 380.533)"/>
    <path id="パス_69" data-name="パス 69" d="M671-361.533v2.467h2.5l-.012-2.454-.019-2.448-1.23-.019L671-364Z" transform="translate(-73.942 341.271)"/>
    <path id="パス_70" data-name="パス 70" d="M713-280.533v2.466h1.149a6.619,6.619,0,0,1,1.186.056,29.664,29.664,0,0,1,.219,3.409l.037,1.561h2.31v-4.871l-1.149-.019a5.8,5.8,0,0,1-1.236-.081,11.839,11.839,0,0,1-.081-2.529V-283H713Z" transform="translate(-113.319 265.328)"/>
    <path id="パス_71" data-name="パス 71" d="M1200.176-242.07c-.012.031-.019,1.7-.012,3.715l.019,3.653h2.248l.019-3.672.012-3.665-.231-.006c-.131-.006-.643-.025-1.136-.05A2.883,2.883,0,0,0,1200.176-242.07Z" transform="translate(-570.06 226.99)"/>
    <path id="パス_72" data-name="パス 72" d="M793.075-121.793a30.265,30.265,0,0,0-.075,3.809v3.734h25.29l-.013-3.8-.019-3.79-1.093-.019c-.6-.006-1.155,0-1.23.019l-.144.031v5l-10.128-.012-10.135-.019-.031-2.5-.031-2.5-1.155-.019A3.663,3.663,0,0,0,793.075-121.793Z" transform="translate(-188.324 114.25)"/>
  </g>
</svg>
