<svg height="1055.36" viewBox="0 0 1055.36 1055.36" width="1055.36" xmlns="http://www.w3.org/2000/svg"><path d="m-2983.228 11456.538s-32.9 9.848 26.38 44.146 125.78 55.628 137.763 70.264 13.954 48.664 85.067 70.129 171.511 87.85 206.3 87.372 28.857-30.287 59.939 0 51.469 98.223 74.032 108.542c13.7 6.264 41.856 16.193 57.625 36.078 9.714 12.248-22.642 24.226-18.34 25.275 10.946 2.675 76.371-16.582 71.58-9.109s0-16.166 0-16.166-28.162-16.073-53.24 0c-6.821 4.373-28.414 10.012-33.635 16.166-7.778 9.163-79.218-4.484-68.572 0 5.8 2.466 89.012 26.08 102.206 22.694 45.77-11.745 38.527-22.694 38.527-22.694s36.706-50.85 14.713-43.4-137.46 57.384-155.446 52.509-25.267-18.822-29.451-25.275-5.36-39.006 29.451 0 115.744 53.1 115.744 53.1-23.8-73.854-31.878-89.179 11.426-28.464 18.34-63.034-73.147-164.545 13.538-29.424 126.323 189.1 113.7 203.464-33.041 34.835-31.3 40.66 110.789 106.781 104.558 101.222-117.5-147.8-147.256-156.947-408.232-190.763-451.132-228.452-2.642-58.539-64.034-75.572-158.8-28.176-158.8-28.176" fill="none" stroke="#707070" transform="matrix(.70710678 -.70710678 .70710678 .70710678 -5984.401 -9610.241)"/></svg>